#!OML:ASF F:\VICON\USERDATA\INSTALL\rory3\rory3.ASF
:FULLY-SPECIFIED
:DEGREES
427
root 0.860291 18.0143 -1.01262 3.77923 -29.847 1.2002
lowerback 3.10962 -0.815329 -4.42659
upperback 2.34322 -1.19986 1.12673
thorax 0.783765 -0.668952 3.67116
lowerneck -13.1105 -0.51143 -12.081
upperneck 12.258 0.651526 6.71959
head 5.79516 0.265799 4.17283
rclavicle -8.02593e-015 -3.1408e-014
rhumerus -33.7749 -3.85763 -75.9872
rradius 46.2748
rwrist 13.8665
rhand -26.8755 10.2938
rfingers 7.12502
rthumb -0.299816 -19.6857
lclavicle -8.02593e-015 -3.1408e-014
lhumerus 14.7418 -27.237 67.5106
lradius 112.446
lwrist 4.60447
lhand -33.3527 42.2418
lfingers 7.12502
lthumb -6.55471 72.1204
rfemur -13.1196 2.70639 10.9911
rtibia 23.0788
rfoot -13.9638 -11.1961
rtoes 4.11635
lfemur -5.90177 0.6689 -23.0529
ltibia 15.8277
lfoot -9.4311 6.48562
ltoes -11.7778
428
root 0.864873 18.0139 -1.02173 3.8406 -29.7836 1.21852
lowerback 3.12837 -0.821713 -4.45791
upperback 2.3402 -1.20995 1.13059
thorax 0.772014 -0.674075 3.6934
lowerneck -13.281 -0.533503 -12.0733
upperneck 12.7748 0.64319 6.63366
head 5.9888 0.245015 4.15434
rclavicle 1.06101e-014 2.38542e-015
rhumerus -33.7759 -3.71304 -76.0371
rradius 46.4115
rwrist 13.7925
rhand -26.8706 10.492
rfingers 7.12502
rthumb -0.295077 -19.4875
lclavicle 1.06101e-014 2.38542e-015
lhumerus 14.2524 -27.3689 67.9804
lradius 112.567
lwrist 4.58018
lhand -33.1276 42.4668
lfingers 7.12502
lthumb -6.33735 72.352
rfemur -13.234 2.67074 10.9774
rtibia 23.1113
rfoot -13.9765 -11.2569
rtoes 3.86712
lfemur -6.01987 0.593751 -23.0623
ltibia 15.819
lfoot -9.37711 6.46554
ltoes -11.6315
429
root 0.869001 18.0145 -1.0283 3.89541 -29.7822 1.23314
lowerback 3.08314 -0.782471 -4.45658
upperback 2.37608 -1.15505 1.09813
thorax 0.828203 -0.648437 3.65678
lowerneck -13.2909 -0.564428 -12.0957
upperneck 13.1058 0.598582 6.64118
head 6.09964 0.214664 4.16324
rclavicle 3.38928e-014 7.7526e-015
rhumerus -33.7765 -3.67015 -76.0884
rradius 46.5593
rwrist 13.7543
rhand -26.8753 10.5349
rfingers 7.12502
rthumb -0.299619 -19.4447
lclavicle 3.38928e-014 7.7526e-015
lhumerus 13.7866 -27.6721 68.3676
lradius 112.724
lwrist 4.39744
lhand -33.1162 43.0458
lfingers 7.12502
lthumb -6.32638 72.9313
rfemur -13.337 2.66502 10.9522
rtibia 23.1151
rfoot -14.003 -11.3195
rtoes 3.6832
lfemur -6.13267 0.630139 -23.085
ltibia 15.8496
lfoot -9.34383 6.45081
ltoes -12.081
430
root 0.872981 18.0156 -1.03383 3.92757 -29.7661 1.21082
lowerback 3.06856 -0.827157 -4.50297
upperback 2.3163 -1.21584 1.17668
thorax 0.783652 -0.677701 3.76578
lowerneck -12.6906 -0.472786 -12.3519
upperneck 13.1278 0.695401 6.63534
head 5.99458 0.239137 4.20564
rclavicle 1.87355e-014 -3.77691e-015
rhumerus -33.9163 -3.27948 -76.0673
rradius 46.7383
rwrist 13.6799
rhand -26.7487 10.4962
rfingers 7.12502
rthumb -0.177342 -19.4835
lclavicle 1.87355e-014 -3.77691e-015
lhumerus 12.8281 -27.8028 69.0696
lradius 112.896
lwrist 4.17209
lhand -33.1703 43.1652
lfingers 7.12502
lthumb -6.37862 73.0491
rfemur -13.3705 2.56918 10.9678
rtibia 23.0961
rfoot -13.9513 -11.239
rtoes 3.82696
lfemur -6.20394 0.658042 -23.0712
ltibia 15.8882
lfoot -9.34684 6.4185
ltoes -12.5465
431
root 0.875858 18.0177 -1.03862 3.96497 -29.747 1.12727
lowerback 3.02214 -0.97023 -4.58932
upperback 2.24309 -1.40783 1.37906
thorax 0.761172 -0.77439 4.02768
lowerneck -12.0327 -0.294134 -12.7318
upperneck 13.131 0.938963 6.51262
head 5.85997 0.319318 4.24012
rclavicle -5.80948e-014 2.0276e-014
rhumerus -34.0099 -2.46198 -76.0505
rradius 46.9452
rwrist 13.4868
rhand -26.6624 10.4359
rfingers 7.12502
rthumb -0.0940656 -19.5438
lclavicle -5.80948e-014 2.0276e-014
lhumerus 11.639 -27.5931 69.9514
lradius 113.087
lwrist 4.05146
lhand -33.1737 42.8796
lfingers 7.12502
lthumb -6.38191 72.7634
rfemur -13.3645 2.54166 11.0478
rtibia 23.0675
rfoot -13.8892 -11.191
rtoes 4.07114
lfemur -6.23481 0.638251 -22.9839
ltibia 15.9059
lfoot -9.33171 6.399
ltoes -12.5147
